<svg id="official-05-er" width="100%" xmlns="http://www.w3.org/2000/svg" class="erDiagram" style="max-width: 169.03125px;" viewBox="0 0 169.03125 527.5" role="graphics-document document" aria-roledescription="er"><style>#official-05-er{font-family:"trebuchet ms",verdana,arial,sans-serif;font-size:16px;fill:#E0E0E0;}@keyframes edge-animation-frame{from{stroke-dashoffset:0;}}@keyframes dash{to{stroke-dashoffset:0;}}#official-05-er .edge-animation-slow{stroke-dasharray:9,5!important;stroke-dashoffset:900;animation:dash 50s linear infinite;stroke-linecap:round;}#official-05-er .edge-animation-fast{stroke-dasharray:9,5!important;stroke-dashoffset:900;animation:dash 20s linear infinite;stroke-linecap:round;}#official-05-er .error-icon{fill:#a44141;}#official-05-er .error-text{fill:#ddd;stroke:#ddd;}#official-05-er .edge-thickness-normal{stroke-width:1px;}#official-05-er .edge-thickness-thick{stroke-width:3.5px;}#official-05-er .edge-pattern-solid{stroke-dasharray:0;}#official-05-er .edge-thickness-invisible{stroke-width:0;fill:none;}#official-05-er .edge-pattern-dashed{stroke-dasharray:3;}#official-05-er .edge-pattern-dotted{stroke-dasharray:2;}#official-05-er .marker{fill:#AAAAAA;stroke:#AAAAAA;}#official-05-er .marker.cross{stroke:#AAAAAA;}#official-05-er svg{font-family:"trebuchet ms",verdana,arial,sans-serif;font-size:16px;}#official-05-er p{margin:0;}#official-05-er .entityBox{fill:#2D2D2D;stroke:#ccc;}#official-05-er .relationshipLabelBox{fill:#2D2D2D;opacity:0.7;background-color:#2D2D2D;}#official-05-er .relationshipLabelBox rect{opacity:0.5;}#official-05-er .labelBkg{background-color:rgba(45, 45, 45, 0.5);}#official-05-er .edgeLabel{background-color:#2D2D2D;}#official-05-er .edgeLabel .label rect{fill:#2D2D2D;}#official-05-er .edgeLabel .label text{fill:#E0E0E0;}#official-05-er .edgeLabel .label{fill:#ccc;font-size:14px;}#official-05-er .label{font-family:"trebuchet ms",verdana,arial,sans-serif;color:#E0E0E0;}#official-05-er .edge-pattern-dashed{stroke-dasharray:8,8;}#official-05-er .node rect,#official-05-er .node circle,#official-05-er .node ellipse,#official-05-er .node polygon{fill:#2D2D2D;stroke:#ccc;stroke-width:1px;}#official-05-er .relationshipLine{stroke:#AAAAAA;stroke-width:1px;fill:none;}#official-05-er .marker{fill:none!important;stroke:#AAAAAA!important;stroke-width:1;}#official-05-er [data-look=neo].labelBkg{background-color:rgba(45, 45, 45, 0.5);}#official-05-er .node .neo-node{stroke:#ccc;}#official-05-er [data-look="neo"].node rect,#official-05-er [data-look="neo"].cluster rect,#official-05-er [data-look="neo"].node polygon{stroke:url(#official-05-er-gradient);filter:drop-shadow( 1px 2px 2px rgba(185,185,185,1));}#official-05-er [data-look="neo"].node path{stroke:url(#official-05-er-gradient);stroke-width:1px;}#official-05-er [data-look="neo"].node .outer-path{filter:drop-shadow( 1px 2px 2px rgba(185,185,185,1));}#official-05-er [data-look="neo"].node .neo-line path{stroke:#ccc;filter:none;}#official-05-er [data-look="neo"].node circle{stroke:url(#official-05-er-gradient);filter:drop-shadow( 1px 2px 2px rgba(185,185,185,1));}#official-05-er [data-look="neo"].node circle .state-start{fill:#000000;}#official-05-er [data-look="neo"].icon-shape .icon{fill:url(#official-05-er-gradient);filter:drop-shadow( 1px 2px 2px rgba(185,185,185,1));}#official-05-er [data-look="neo"].icon-shape .icon-neo path{stroke:url(#official-05-er-gradient);filter:drop-shadow( 1px 2px 2px rgba(185,185,185,1));}#official-05-er :root{--mermaid-font-family:"trebuchet ms",verdana,arial,sans-serif;}</style><g><defs><marker id="official-05-er_er-onlyOneStart" class="marker onlyOne er" refX="0" refY="9" markerWidth="18" markerHeight="18" orient="auto"><path d="M9,0 L9,18 M15,0 L15,18"></path></marker></defs><defs><marker id="official-05-er_er-onlyOneEnd" class="marker onlyOne er" refX="18" refY="9" markerWidth="18" markerHeight="18" orient="auto"><path d="M3,0 L3,18 M9,0 L9,18"></path></marker></defs><defs><marker id="official-05-er_er-zeroOrOneStart" class="marker zeroOrOne er" refX="0" refY="9" markerWidth="30" markerHeight="18" orient="auto"><circle fill="white" cx="21" cy="9" r="6"></circle><path d="M9,0 L9,18"></path></marker></defs><defs><marker id="official-05-er_er-zeroOrOneEnd" class="marker zeroOrOne er" refX="30" refY="9" markerWidth="30" markerHeight="18" orient="auto"><circle fill="white" cx="9" cy="9" r="6"></circle><path d="M21,0 L21,18"></path></marker></defs><defs><marker id="official-05-er_er-oneOrMoreStart" class="marker oneOrMore er" refX="18" refY="18" markerWidth="45" markerHeight="36" orient="auto"><path d="M0,18 Q 18,0 36,18 Q 18,36 0,18 M42,9 L42,27"></path></marker></defs><defs><marker id="official-05-er_er-oneOrMoreEnd" class="marker oneOrMore er" refX="27" refY="18" markerWidth="45" markerHeight="36" orient="auto"><path d="M3,9 L3,27 M9,18 Q27,0 45,18 Q27,36 9,18"></path></marker></defs><defs><marker id="official-05-er_er-zeroOrMoreStart" class="marker zeroOrMore er" refX="18" refY="18" markerWidth="57" markerHeight="36" orient="auto"><circle fill="white" cx="48" cy="18" r="6"></circle><path d="M0,18 Q18,0 36,18 Q18,36 0,18"></path></marker></defs><defs><marker id="official-05-er_er-zeroOrMoreEnd" class="marker zeroOrMore er" refX="39" refY="18" markerWidth="57" markerHeight="36" orient="auto"><circle fill="white" cx="9" cy="18" r="6"></circle><path d="M21,18 Q39,0 57,18 Q39,36 21,18"></path></marker></defs><g class="root"><g class="clusters"></g><g class="edgePaths"><path d="M78.266,121.25L78.266,129.833C78.266,138.417,78.266,155.583,78.266,172.75C78.266,189.917,78.266,207.083,78.266,215.667L78.266,224.25" id="official-05-er-id_entity-DOCUMENT-0_entity-SECTION-1_0" class=" edge-thickness-normal edge-pattern-solid relationshipLine" style="undefined;;;undefined" data-edge="true" data-et="edge" data-id="id_entity-DOCUMENT-0_entity-SECTION-1_0" data-points="W3sieCI6NzguMjY1NjI1LCJ5IjoxMjEuMjV9LHsieCI6NzguMjY1NjI1LCJ5IjoxNzIuNzV9LHsieCI6NzguMjY1NjI1LCJ5IjoyMjQuMjV9XQ==" data-look="classic" marker-start="url(#official-05-er_er-onlyOneStart)" marker-end="url(#official-05-er_er-zeroOrMoreEnd)"></path><path d="M78.266,337.5L78.266,346.083C78.266,354.667,78.266,371.833,78.266,389C78.266,406.167,78.266,423.333,78.266,431.917L78.266,440.5" id="official-05-er-id_entity-SECTION-1_entity-DIAGRAM-2_1" class=" edge-thickness-normal edge-pattern-solid relationshipLine" style="undefined;;;undefined" data-edge="true" data-et="edge" data-id="id_entity-SECTION-1_entity-DIAGRAM-2_1" data-points="W3sieCI6NzguMjY1NjI1LCJ5IjozMzcuNX0seyJ4Ijo3OC4yNjU2MjUsInkiOjM4OX0seyJ4Ijo3OC4yNjU2MjUsInkiOjQ0MC41fV0=" data-look="classic" marker-start="url(#official-05-er_er-onlyOneStart)" marker-end="url(#official-05-er_er-zeroOrOneEnd)"></path></g><g class="edgeLabels"><g class="edgeLabel" transform="translate(78.265625, 172.75)"><g class="label" data-id="id_entity-DOCUMENT-0_entity-SECTION-1_0" transform="translate(0, -9.000000476837158)"><g><rect class="background" style="" x="-31.890625" y="-1" width="63.78125" height="23"></rect><text y="-10.1" text-anchor="middle" style=""><tspan class="text-outer-tspan row" x="0" y="-0.1em" dy="1.1em" text-anchor="middle"><tspan font-style="normal" class="text-inner-tspan" font-weight="normal">contains</tspan></tspan></text></g></g></g><g class="edgeLabel" transform="translate(78.265625, 389)"><g class="label" data-id="id_entity-SECTION-1_entity-DIAGRAM-2_1" transform="translate(0, -9.000000476837158)"><g><rect class="background" style="" x="-29.015625" y="-1" width="58.03125" height="23"></rect><text y="-10.1" text-anchor="middle" style=""><tspan class="text-outer-tspan row" x="0" y="-0.1em" dy="1.1em" text-anchor="middle"><tspan font-style="normal" class="text-inner-tspan" font-weight="normal">renders</tspan></tspan></text></g></g></g></g><g class="nodes"><g class="node default " id="official-05-er-entity-DOCUMENT-0" data-look="classic" transform="translate(78.265625, 64.625)"><g class="outer-path" style=""><path d="M-64.984375 -56.625 L64.984375 -56.625 L64.984375 56.625 L-64.984375 56.625" stroke="none" stroke-width="0" fill="#2D2D2D"></path><path d="M-64.984375 -56.625 C-28.861284563234 -56.625, 7.261805873531998 -56.625, 64.984375 -56.625 M-64.984375 -56.625 C-26.235845658690543 -56.625, 12.512683682618913 -56.625, 64.984375 -56.625 M64.984375 -56.625 C64.984375 -31.121721316550598, 64.984375 -5.618442633101196, 64.984375 56.625 M64.984375 -56.625 C64.984375 -30.700816417426484, 64.984375 -4.776632834852968, 64.984375 56.625 M64.984375 56.625 C21.51848232266949 56.625, -21.947410354661017 56.625, -64.984375 56.625 M64.984375 56.625 C25.66168737724135 56.625, -13.6610002455173 56.625, -64.984375 56.625 M-64.984375 56.625 C-64.984375 30.56827915435933, -64.984375 4.511558308718662, -64.984375 -56.625 M-64.984375 56.625 C-64.984375 21.274302471789973, -64.984375 -14.076395056420054, -64.984375 -56.625" stroke="#ccc" stroke-width="1.3" fill="none" stroke-dasharray="0 0"></path></g><g style="" class="row-rect-odd"><path d="M-64.984375 -18.875 L64.984375 -18.875 L64.984375 18.875 L-64.984375 18.875" stroke="none" stroke-width="0" fill="hsl(180, 1.5873015873%, 17.3529411765%)"></path><path d="M-64.984375 -18.875 C-33.508327856595926 -18.875, -2.0322807131918594 -18.875, 64.984375 -18.875 M-64.984375 -18.875 C-15.701734002261304 -18.875, 33.58090699547739 -18.875, 64.984375 -18.875 M64.984375 -18.875 C64.984375 -8.64249967260189, 64.984375 1.5900006547962207, 64.984375 18.875 M64.984375 -18.875 C64.984375 -7.867074532625667, 64.984375 3.1408509347486664, 64.984375 18.875 M64.984375 18.875 C20.044623740086585 18.875, -24.89512751982683 18.875, -64.984375 18.875 M64.984375 18.875 C38.46253808304857 18.875, 11.940701166097135 18.875, -64.984375 18.875 M-64.984375 18.875 C-64.984375 4.24044596458053, -64.984375 -10.39410807083894, -64.984375 -18.875 M-64.984375 18.875 C-64.984375 10.424304865169946, -64.984375 1.9736097303398914, -64.984375 -18.875" stroke="#ccc" stroke-width="1.3" fill="none" stroke-dasharray="0 0"></path></g><g style="" class="row-rect-even"><path d="M-64.984375 18.875 L64.984375 18.875 L64.984375 56.625 L-64.984375 56.625" stroke="none" stroke-width="0" fill="hsl(180, 1.5873015873%, 2.3529411765%)"></path><path d="M-64.984375 18.875 C-31.46904803354824 18.875, 2.046278932903519 18.875, 64.984375 18.875 M-64.984375 18.875 C-38.8046517238137 18.875, -12.624928447627397 18.875, 64.984375 18.875 M64.984375 18.875 C64.984375 29.310497434071983, 64.984375 39.74599486814397, 64.984375 56.625 M64.984375 18.875 C64.984375 29.66966873673343, 64.984375 40.46433747346686, 64.984375 56.625 M64.984375 56.625 C22.653913190486428 56.625, -19.676548619027145 56.625, -64.984375 56.625 M64.984375 56.625 C28.7007836214459 56.625, -7.582807757108199 56.625, -64.984375 56.625 M-64.984375 56.625 C-64.984375 48.27927604008949, -64.984375 39.933552080178984, -64.984375 18.875 M-64.984375 56.625 C-64.984375 41.57191412317147, -64.984375 26.51882824634293, -64.984375 18.875" stroke="#ccc" stroke-width="1.3" fill="none" stroke-dasharray="0 0"></path></g><g class="label name" transform="translate(-39.984375, -47.25)" style=""><g><rect class="background" style="stroke: none"></rect></g><text y="-10.1" style=""><tspan class="text-outer-tspan row" x="0" y="-0.1em" dy="1.1em"><tspan font-style="normal" class="text-inner-tspan" font-weight="normal">DOCUMENT</tspan></tspan></text></g><g class="label attribute-type" transform="translate(-52.484375, -9.5)" style=""><g><rect class="background" style="stroke: none"></rect></g><text y="-10.1" style=""><tspan class="text-outer-tspan row" x="0" y="-0.1em" dy="1.1em"><tspan font-style="normal" class="text-inner-tspan" font-weight="normal">string</tspan></tspan></text></g><g class="label attribute-name" transform="translate(16.484375, -9.5)" style=""><g><rect class="background" style="stroke: none"></rect></g><text y="-10.1" style=""><tspan class="text-outer-tspan row" x="0" y="-0.1em" dy="1.1em"><tspan font-style="normal" class="text-inner-tspan" font-weight="normal">path</tspan></tspan></text></g><g class="label attribute-keys" transform="translate(77.484375, -9.5)" style=""><g><rect class="background" style="stroke: none"></rect></g><text y="-10.1" style=""><tspan class="text-outer-tspan row" x="0" y="-0.1em" dy="1.1em"></tspan></text></g><g class="label attribute-comment" transform="translate(77.484375, -9.5)" style=""><g><rect class="background" style="stroke: none"></rect></g><text y="-10.1" style=""><tspan class="text-outer-tspan row" x="0" y="-0.1em" dy="1.1em"></tspan></text></g><g class="label attribute-type" transform="translate(-52.484375, 28.25)" style=""><g><rect class="background" style="stroke: none"></rect></g><text y="-10.1" style=""><tspan class="text-outer-tspan row" x="0" y="-0.1em" dy="1.1em"><tspan font-style="normal" class="text-inner-tspan" font-weight="normal">string</tspan></tspan></text></g><g class="label attribute-name" transform="translate(16.484375, 28.25)" style=""><g><rect class="background" style="stroke: none"></rect></g><text y="-10.1" style=""><tspan class="text-outer-tspan row" x="0" y="-0.1em" dy="1.1em"><tspan font-style="normal" class="text-inner-tspan" font-weight="normal">title</tspan></tspan></text></g><g class="label attribute-keys" transform="translate(77.484375, 28.25)" style=""><g><rect class="background" style="stroke: none"></rect></g><text y="-10.1" style=""><tspan class="text-outer-tspan row" x="0" y="-0.1em" dy="1.1em"></tspan></text></g><g class="label attribute-comment" transform="translate(77.484375, 28.25)" style=""><g><rect class="background" style="stroke: none"></rect></g><text y="-10.1" style=""><tspan class="text-outer-tspan row" x="0" y="-0.1em" dy="1.1em"></tspan></text></g><g class="divider"><path d="M-64.984375 -18.87505 L-64.984375 -18.87495 L64.984375 -18.87495 L64.984375 -18.87505" stroke="none" stroke-width="0" fill="#2D2D2D" fill-rule="evenodd"></path><path d="M-64.984375 -18.87505 C-64.984375 -18.875028666345475, -64.984375 -18.87500733269095, -64.984375 -18.87495 M-64.984375 -18.87505 C-64.984375 -18.87502365713918, -64.984375 -18.87499731427836, -64.984375 -18.87495 M-64.984375 -18.87495 C-29.199253619449102 -18.87495, 6.585867761101795 -18.87495, 64.984375 -18.87495 M-64.984375 -18.87495 C-28.154306149910198 -18.87495, 8.675762700179604 -18.87495, 64.984375 -18.87495 M64.984375 -18.87495 C64.984375 -18.87498601632575, 64.984375 -18.8750220326515, 64.984375 -18.87505 M64.984375 -18.87495 C64.984375 -18.874970909181677, 64.984375 -18.874991818363355, 64.984375 -18.87505 M64.984375 -18.87505 C19.62663288090429 -18.87505, -25.731109238191422 -18.87505, -64.984375 -18.87505 M64.984375 -18.87505 C20.460969229203457 -18.87505, -24.062436541593087 -18.87505, -64.984375 -18.87505" stroke="#ccc" stroke-width="1.3" fill="none" stroke-dasharray="0 0"></path></g><g class="divider"><path d="M3.984325 -18.875 L3.984425 -18.875 L3.984425 56.625 L3.984325 56.625" stroke="none" stroke-width="0" fill="#2D2D2D" fill-rule="evenodd"></path><path d="M3.984325 -18.875 C3.984360110162992 -18.875, 3.9843952203259843 -18.875, 3.984425 -18.875 M3.984325 -18.875 C3.9843619402624175 -18.875, 3.984398880524835 -18.875, 3.984425 -18.875 M3.984425 -18.875 C3.984425 0.4466664126143378, 3.984425 19.768332825228676, 3.984425 56.625 M3.984425 -18.875 C3.984425 9.975629201598625, 3.984425 38.82625840319725, 3.984425 56.625 M3.984425 56.625 C3.9843992717678227 56.625, 3.9843735435356455 56.625, 3.984325 56.625 M3.984425 56.625 C3.984400028163552 56.625, 3.9843750563271043 56.625, 3.984325 56.625 M3.984325 56.625 C3.984325 34.25467184204838, 3.984325 11.884343684096756, 3.984325 -18.875 M3.984325 56.625 C3.984325 36.06756147288677, 3.984325 15.510122945773546, 3.984325 -18.875" stroke="#ccc" stroke-width="1.3" fill="none" stroke-dasharray="0 0"></path></g><g class="divider"><path d="M-64.984375 -18.87505 L-64.984375 -18.87495 L64.984375 -18.87495 L64.984375 -18.87505" stroke="none" stroke-width="0" fill="#2D2D2D" fill-rule="evenodd"></path><path d="M-64.984375 -18.87505 C-64.984375 -18.87502995598278, -64.984375 -18.875009911965552, -64.984375 -18.87495 M-64.984375 -18.87505 C-64.984375 -18.875021668114616, -64.984375 -18.874993336229235, -64.984375 -18.87495 M-64.984375 -18.87495 C-19.44364581557405 -18.87495, 26.097083368851898 -18.87495, 64.984375 -18.87495 M-64.984375 -18.87495 C-20.710848942195298 -18.87495, 23.562677115609404 -18.87495, 64.984375 -18.87495 M64.984375 -18.87495 C64.984375 -18.87497797022296, 64.984375 -18.875005940445924, 64.984375 -18.87505 M64.984375 -18.87495 C64.984375 -18.874982702896848, 64.984375 -18.8750154057937, 64.984375 -18.87505 M64.984375 -18.87505 C32.32721463927324 -18.87505, -0.32994572145352663 -18.87505, -64.984375 -18.87505 M64.984375 -18.87505 C36.39968614038882 -18.87505, 7.814997280777646 -18.87505, -64.984375 -18.87505" stroke="#ccc" stroke-width="1.3" fill="none" stroke-dasharray="0 0"></path></g></g><g class="node default " id="official-05-er-entity-SECTION-1" data-look="classic" transform="translate(78.265625, 280.875)"><g class="outer-path" style=""><path d="M-70.265625 -56.625 L70.265625 -56.625 L70.265625 56.625 L-70.265625 56.625" stroke="none" stroke-width="0" fill="#2D2D2D"></path><path d="M-70.265625 -56.625 C-16.291618373787337 -56.625, 37.682388252425326 -56.625, 70.265625 -56.625 M-70.265625 -56.625 C-34.88558017583134 -56.625, 0.4944646483373134 -56.625, 70.265625 -56.625 M70.265625 -56.625 C70.265625 -15.88027890570099, 70.265625 24.86444218859802, 70.265625 56.625 M70.265625 -56.625 C70.265625 -13.158083769924076, 70.265625 30.308832460151848, 70.265625 56.625 M70.265625 56.625 C22.00181613066755 56.625, -26.2619927386649 56.625, -70.265625 56.625 M70.265625 56.625 C31.905795782910687 56.625, -6.454033434178626 56.625, -70.265625 56.625 M-70.265625 56.625 C-70.265625 14.309724366725085, -70.265625 -28.00555126654983, -70.265625 -56.625 M-70.265625 56.625 C-70.265625 32.22190563236748, -70.265625 7.818811264734968, -70.265625 -56.625" stroke="#ccc" stroke-width="1.3" fill="none" stroke-dasharray="0 0"></path></g><g style="" class="row-rect-odd"><path d="M-70.265625 -18.875 L70.265625 -18.875 L70.265625 18.875 L-70.265625 18.875" stroke="none" stroke-width="0" fill="hsl(180, 1.5873015873%, 17.3529411765%)"></path><path d="M-70.265625 -18.875 C-15.847918768922234 -18.875, 38.56978746215553 -18.875, 70.265625 -18.875 M-70.265625 -18.875 C-41.89775208267382 -18.875, -13.52987916534763 -18.875, 70.265625 -18.875 M70.265625 -18.875 C70.265625 -9.726940190261704, 70.265625 -0.5788803805234082, 70.265625 18.875 M70.265625 -18.875 C70.265625 -6.071219066237504, 70.265625 6.732561867524993, 70.265625 18.875 M70.265625 18.875 C41.16808563266588 18.875, 12.070546265331757 18.875, -70.265625 18.875 M70.265625 18.875 C35.10240111800281 18.875, -0.06082276399438058 18.875, -70.265625 18.875 M-70.265625 18.875 C-70.265625 4.151232713737723, -70.265625 -10.572534572524553, -70.265625 -18.875 M-70.265625 18.875 C-70.265625 8.092269234860376, -70.265625 -2.690461530279247, -70.265625 -18.875" stroke="#ccc" stroke-width="1.3" fill="none" stroke-dasharray="0 0"></path></g><g style="" class="row-rect-even"><path d="M-70.265625 18.875 L70.265625 18.875 L70.265625 56.625 L-70.265625 56.625" stroke="none" stroke-width="0" fill="hsl(180, 1.5873015873%, 2.3529411765%)"></path><path d="M-70.265625 18.875 C-14.359543355932217 18.875, 41.546538288135565 18.875, 70.265625 18.875 M-70.265625 18.875 C-18.88002477293937 18.875, 32.50557545412126 18.875, 70.265625 18.875 M70.265625 18.875 C70.265625 33.06576822121828, 70.265625 47.25653644243656, 70.265625 56.625 M70.265625 18.875 C70.265625 29.005829569220637, 70.265625 39.136659138441274, 70.265625 56.625 M70.265625 56.625 C40.0519923411764 56.625, 9.83835968235281 56.625, -70.265625 56.625 M70.265625 56.625 C22.28290424451656 56.625, -25.699816510966883 56.625, -70.265625 56.625 M-70.265625 56.625 C-70.265625 48.318847370901665, -70.265625 40.01269474180333, -70.265625 18.875 M-70.265625 56.625 C-70.265625 47.79617978770482, -70.265625 38.967359575409645, -70.265625 18.875" stroke="#ccc" stroke-width="1.3" fill="none" stroke-dasharray="0 0"></path></g><g class="label name" transform="translate(-30.2890625, -47.25)" style=""><g><rect class="background" style="stroke: none"></rect></g><text y="-10.1" style=""><tspan class="text-outer-tspan row" x="0" y="-0.1em" dy="1.1em"><tspan font-style="normal" class="text-inner-tspan" font-weight="normal">SECTION</tspan></tspan></text></g><g class="label attribute-type" transform="translate(-57.765625, -9.5)" style=""><g><rect class="background" style="stroke: none"></rect></g><text y="-10.1" style=""><tspan class="text-outer-tspan row" x="0" y="-0.1em" dy="1.1em"><tspan font-style="normal" class="text-inner-tspan" font-weight="normal">int</tspan></tspan></text></g><g class="label attribute-name" transform="translate(7.609375, -9.5)" style=""><g><rect class="background" style="stroke: none"></rect></g><text y="-10.1" style=""><tspan class="text-outer-tspan row" x="0" y="-0.1em" dy="1.1em"><tspan font-style="normal" class="text-inner-tspan" font-weight="normal">ordinal</tspan></tspan></text></g><g class="label attribute-keys" transform="translate(82.765625, -9.5)" style=""><g><rect class="background" style="stroke: none"></rect></g><text y="-10.1" style=""><tspan class="text-outer-tspan row" x="0" y="-0.1em" dy="1.1em"></tspan></text></g><g class="label attribute-comment" transform="translate(82.765625, -9.5)" style=""><g><rect class="background" style="stroke: none"></rect></g><text y="-10.1" style=""><tspan class="text-outer-tspan row" x="0" y="-0.1em" dy="1.1em"></tspan></text></g><g class="label attribute-type" transform="translate(-57.765625, 28.25)" style=""><g><rect class="background" style="stroke: none"></rect></g><text y="-10.1" style=""><tspan class="text-outer-tspan row" x="0" y="-0.1em" dy="1.1em"><tspan font-style="normal" class="text-inner-tspan" font-weight="normal">string</tspan></tspan></text></g><g class="label attribute-name" transform="translate(7.609375, 28.25)" style=""><g><rect class="background" style="stroke: none"></rect></g><text y="-10.1" style=""><tspan class="text-outer-tspan row" x="0" y="-0.1em" dy="1.1em"><tspan font-style="normal" class="text-inner-tspan" font-weight="normal">kind</tspan></tspan></text></g><g class="label attribute-keys" transform="translate(82.765625, 28.25)" style=""><g><rect class="background" style="stroke: none"></rect></g><text y="-10.1" style=""><tspan class="text-outer-tspan row" x="0" y="-0.1em" dy="1.1em"></tspan></text></g><g class="label attribute-comment" transform="translate(82.765625, 28.25)" style=""><g><rect class="background" style="stroke: none"></rect></g><text y="-10.1" style=""><tspan class="text-outer-tspan row" x="0" y="-0.1em" dy="1.1em"></tspan></text></g><g class="divider"><path d="M-70.265625 -18.87505 L-70.265625 -18.87495 L70.265625 -18.87495 L70.265625 -18.87505" stroke="none" stroke-width="0" fill="#2D2D2D" fill-rule="evenodd"></path><path d="M-70.265625 -18.87505 C-70.265625 -18.875011002374357, -70.265625 -18.874972004748713, -70.265625 -18.87495 M-70.265625 -18.87505 C-70.265625 -18.8750102850826, -70.265625 -18.874970570165196, -70.265625 -18.87495 M-70.265625 -18.87495 C-16.35945912184411 -18.87495, 37.54670675631178 -18.87495, 70.265625 -18.87495 M-70.265625 -18.87495 C-18.159622618074472 -18.87495, 33.946379763851056 -18.87495, 70.265625 -18.87495 M70.265625 -18.87495 C70.265625 -18.87497962554588, 70.265625 -18.875009251091765, 70.265625 -18.87505 M70.265625 -18.87495 C70.265625 -18.874976574935786, 70.265625 -18.87500314987157, 70.265625 -18.87505 M70.265625 -18.87505 C24.665270419231653 -18.87505, -20.935084161536693 -18.87505, -70.265625 -18.87505 M70.265625 -18.87505 C29.718425450249597 -18.87505, -10.828774099500805 -18.87505, -70.265625 -18.87505" stroke="#ccc" stroke-width="1.3" fill="none" stroke-dasharray="0 0"></path></g><g class="divider"><path d="M-4.890675 -18.875 L-4.890575 -18.875 L-4.890575 56.625 L-4.890675 56.625" stroke="none" stroke-width="0" fill="#2D2D2D" fill-rule="evenodd"></path><path d="M-4.890675 -18.875 C-4.890643537712782 -18.875, -4.890612075425564 -18.875, -4.890575 -18.875 M-4.890675 -18.875 C-4.890635024355458 -18.875, -4.890595048710915 -18.875, -4.890575 -18.875 M-4.890575 -18.875 C-4.890575 2.542410215036025, -4.890575 23.95982043007205, -4.890575 56.625 M-4.890575 -18.875 C-4.890575 -0.33290118377518496, -4.890575 18.20919763244963, -4.890575 56.625 M-4.890575 56.625 C-4.890602550567465 56.625, -4.89063010113493 56.625, -4.890675 56.625 M-4.890575 56.625 C-4.890605365703692 56.625, -4.890635731407384 56.625, -4.890675 56.625 M-4.890675 56.625 C-4.890675 33.37431246116282, -4.890675 10.123624922325646, -4.890675 -18.875 M-4.890675 56.625 C-4.890675 26.89922263776742, -4.890675 -2.8265547244651614, -4.890675 -18.875" stroke="#ccc" stroke-width="1.3" fill="none" stroke-dasharray="0 0"></path></g><g class="divider"><path d="M-70.265625 -18.87505 L-70.265625 -18.87495 L70.265625 -18.87495 L70.265625 -18.87505" stroke="none" stroke-width="0" fill="#2D2D2D" fill-rule="evenodd"></path><path d="M-70.265625 -18.87505 C-70.265625 -18.875021773115893, -70.265625 -18.874993546231785, -70.265625 -18.87495 M-70.265625 -18.87505 C-70.265625 -18.875027235582234, -70.265625 -18.87500447116447, -70.265625 -18.87495 M-70.265625 -18.87495 C-16.6577567556281 -18.87495, 36.9501114887438 -18.87495, 70.265625 -18.87495 M-70.265625 -18.87495 C-31.852815568812588 -18.87495, 6.559993862374824 -18.87495, 70.265625 -18.87495 M70.265625 -18.87495 C70.265625 -18.87497499001194, 70.265625 -18.874999980023876, 70.265625 -18.87505 M70.265625 -18.87495 C70.265625 -18.874987106677523, 70.265625 -18.875024213355047, 70.265625 -18.87505 M70.265625 -18.87505 C39.016394824884685 -18.87505, 7.76716464976937 -18.87505, -70.265625 -18.87505 M70.265625 -18.87505 C30.60705549280228 -18.87505, -9.051514014395437 -18.87505, -70.265625 -18.87505" stroke="#ccc" stroke-width="1.3" fill="none" stroke-dasharray="0 0"></path></g></g><g class="node default " id="official-05-er-entity-DIAGRAM-2" data-look="classic" transform="translate(78.265625, 480)"><rect class="basic label-container" style="" x="-52.3125" y="-39.5" width="104.625" height="79"></rect><g class="label" style="" transform="translate(0, -9.5)"><rect></rect><g><rect class="background" style="stroke: none"></rect><text y="-10.1" style="" transform="translate(-32.3125, 0)"><tspan class="text-outer-tspan row" x="0" y="-0.1em" dy="1.1em"><tspan font-style="normal" class="text-inner-tspan" font-weight="normal">DIAGRAM</tspan></tspan></text></g></g></g></g></g></g><defs><filter id="official-05-er-drop-shadow" height="130%" width="130%"><feDropShadow dx="4" dy="4" stdDeviation="0" flood-opacity="0.06" flood-color="#FFFFFF"></feDropShadow></filter></defs><defs><filter id="official-05-er-drop-shadow-small" height="150%" width="150%"><feDropShadow dx="2" dy="2" stdDeviation="0" flood-opacity="0.06" flood-color="#FFFFFF"></feDropShadow></filter></defs><linearGradient id="official-05-er-gradient" gradientUnits="objectBoundingBox" x1="0%" y1="0%" x2="100%" y2="0%"><stop offset="0%" stop-color="#cccccc" stop-opacity="1"></stop><stop offset="100%" stop-color="hsl(180, 0%, 18.3529411765%)" stop-opacity="1"></stop></linearGradient></svg>