<svg xmlns="http://www.w3.org/2000/svg" width="16" height="16" viewBox="0 0 16 16" fill="none" stroke="#FFFFFF" stroke-width="1.5" stroke-linecap="round" stroke-linejoin="round">
  <path d="M6.5 4 5.5 3" />
  <path d="M9.5 4 10.5 3" />
  <path d="M6.25 5A1.75 1.75 0 0 1 8 3.5A1.75 1.75 0 0 1 9.75 5" />
  <path d="M4.5 8A3.5 3.5 0 0 1 8 4.5A3.5 3.5 0 0 1 11.5 8V10A3.5 3.5 0 0 1 8 13.5A3.5 3.5 0 0 1 4.5 10V8" />
  <path d="M8 6v7.5" />
  <path d="M4.5 7 3 6" />
  <path d="M4 9.5H2.5" />
  <path d="M4.5 12 3 13" />
  <path d="M11.5 7 13 6" />
  <path d="M12 9.5h1.5" />
  <path d="M11.5 12 13 13" />
</svg>
